ffmpeg started on 2016-12-08 at 20:23:42
Report written to "Output/x264/results/ffmpeg/crowd_run_2160p50veryslow8000k.log"
Command line:
Tools/ffmpeg/ffmpeg -benchmark -y -i Input/y4m/crowd_run_2160p50.y4m -c:v libx264 -preset veryslow -b:v 8000k -an Output/x264/encoded/crowd_run_2160p50veryslow8000k.mkv
ffmpeg version N-82227-gdb23fde Copyright (c) 2000-2016 the FFmpeg developers
  built with gcc 5.4.0 (Ubuntu 5.4.0-6ubuntu1~16.04.2) 20160609
  configuration: --prefix=/home/jaroslav/ffmpeg_build --pkg-config-flags=--static --extra-cflags=-I/home/jaroslav/ffmpeg_build/include --extra-ldflags=-L/home/jaroslav/ffmpeg_build/lib --bindir=/home/jaroslav/bin --enable-gpl --enable-libass --enable-libfdk-aac --enable-libfreetype --enable-libmp3lame --enable-libopus --enable-libtheora --enable-libvorbis --enable-libvpx --enable-libx264 --enable-libx265 --enable-nvenc --enable-libmfx --enable-libxvid --enable-libgsm --enable-libopencore-amrnb --enable-version3 --enable-nonfree
  libavutil      55. 35.100 / 55. 35.100
  libavcodec     57. 66.101 / 57. 66.101
  libavformat    57. 57.100 / 57. 57.100
  libavdevice    57.  2.100 / 57.  2.100
  libavfilter     6. 66.100 /  6. 66.100
  libswscale      4.  3.100 /  4.  3.100
  libswresample   2.  4.100 /  2.  4.100
  libpostproc    54.  2.100 / 54.  2.100
Input #0, yuv4mpegpipe, from 'Input/y4m/crowd_run_2160p50.y4m':
  Duration: 00:00:10.00, start: 0.000000, bitrate: 4976642 kb/s
    Stream #0:0: Video: rawvideo (I420 / 0x30323449), yuv420p(progressive), 3840x2160, SAR 1:1 DAR 16:9, 50 fps, 50 tbr, 50 tbn, 50 tbc
[libx264 @ 0x2e8e1c0] using SAR=1/1
[libx264 @ 0x2e8e1c0] DPB size (16 frames, 518400 mbs) > level limit (5 frames, 184320 mbs)
[libx264 @ 0x2e8e1c0] using cpu capabilities: MMX2 SSE2Fast SSSE3 SSE4.2 AVX FMA3 AVX2 LZCNT BMI2
[libx264 @ 0x2e8e1c0] profile High, level 5.2
[libx264 @ 0x2e8e1c0] 264 - core 148 - H.264/MPEG-4 AVC codec - Copyleft 2003-2016 - http://www.videolan.org/x264.html - options: cabac=1 ref=16 deblock=1:0:0 analyse=0x3:0x133 me=umh subme=10 psy=1 psy_rd=1.00:0.00 mixed_ref=1 me_range=24 chroma_me=1 trellis=2 8x8dct=1 cqm=0 deadzone=21,11 fast_pskip=1 chroma_qp_offset=-2 threads=6 lookahead_threads=1 sliced_threads=0 nr=0 decimate=1 interlaced=0 bluray_compat=0 constrained_intra=0 bframes=8 b_pyramid=2 b_adapt=2 b_bias=0 direct=3 weightb=1 open_gop=0 weightp=2 keyint=250 keyint_min=25 scenecut=40 intra_refresh=0 rc_lookahead=60 rc=abr mbtree=1 bitrate=8000 ratetol=1.0 qcomp=0.60 qpmin=0 qpmax=69 qpstep=4 ip_ratio=1.40 aq=1:1.00
Output #0, matroska, to 'Output/x264/encoded/crowd_run_2160p50veryslow8000k.mkv':
  Metadata:
    encoder         : Lavf57.57.100
    Stream #0:0: Video: h264 (libx264) (H264 / 0x34363248), yuv420p, 3840x2160 [SAR 1:1 DAR 16:9], q=-1--1, 8000 kb/s, 50 fps, 1k tbn, 50 tbc
    Metadata:
      encoder         : Lavc57.66.101 libx264
    Side data:
      cpb: bitrate max/min/avg: 0/0/8000000 buffer size: 0 vbv_delay: -1
Stream mapping:
  Stream #0:0 -> #0:0 (rawvideo (native) -> h264 (libx264))
Press [q] to stop, [?] for help
frame=   19 fps=0.0 q=0.0 size=       0kB time=00:00:00.00 bitrate=N/A speed=   0x    frame=   31 fps= 29 q=0.0 size=       0kB time=00:00:00.00 bitrate=N/A speed=   0x    frame=   41 fps= 26 q=0.0 size=       0kB time=00:00:00.00 bitrate=N/A speed=   0x    frame=   44 fps= 21 q=0.0 size=       0kB time=00:00:00.00 bitrate=N/A speed=   0x    frame=   52 fps= 19 q=0.0 size=       0kB time=00:00:00.00 bitrate=N/A speed=   0x    frame=   60 fps= 19 q=0.0 size=       0kB time=00:00:00.00 bitrate=N/A speed=   0x    frame=   69 fps= 18 q=0.0 size=       0kB time=00:00:00.00 bitrate=N/A speed=   0x    frame=   72 fps=6.5 q=0.0 size=       0kB time=00:00:00.00 bitrate=N/A speed=   0x    frame=   77 fps=6.1 q=44.0 size=       1kB time=-00:00:00.01 bitrate=N/A speed=N/A    frame=   78 fps=5.8 q=40.0 size=       1kB time=00:00:00.00 bitrate=5888.0kbits/s speed=7.4e-05x    frame=   79 fps=5.6 q=38.0 size=       1kB time=00:00:00.02 bitrate= 280.4kbits/s speed=0.0015x    frame=   84 fps=5.5 q=50.0 size=       1kB time=00:00:00.12 bitrate=  48.7kbits/s speed=0.00793x    frame=   85 fps=5.3 q=51.0 size=       1kB time=00:00:00.14 bitrate=  41.8kbits/s speed=0.00873x    frame=   89 fps=5.3 q=50.0 size=       1kB time=00:00:00.22 bitrate=  26.6kbits/s speed=0.0132x    frame=   90 fps=5.0 q=51.0 size=       1kB time=00:00:00.24 bitrate=  24.4kbits/s speed=0.0135x    frame=   92 fps=5.0 q=51.0 size=       1kB time=00:00:00.28 bitrate=  21.0kbits/s speed=0.0152x    frame=   94 fps=4.8 q=50.0 size=       1kB time=00:00:00.32 bitrate=  18.3kbits/s speed=0.0165x    frame=   95 fps=4.6 q=50.0 size=       1kB time=00:00:00.34 bitrate=  17.3kbits/s speed=0.0166x    frame=   96 fps=4.6 q=50.0 size=       1kB time=00:00:00.36 bitrate=  16.3kbits/s speed=0.0171x    frame=   97 fps=4.5 q=50.0 size=       1kB time=00:00:00.38 bitrate=  15.5kbits/s speed=0.0176x    frame=   99 fps=4.2 q=50.0 size=       1kB time=00:00:00.42 bitrate=  14.0kbits/s speed=0.0179x    frame=  100 fps=4.1 q=50.0 size=       1kB time=00:00:00.44 bitrate=  13.4kbits/s speed=0.0182x    frame=  101 fps=4.1 q=50.0 size=       1kB time=00:00:00.46 bitrate=  12.8kbits/s speed=0.0187x    frame=  102 fps=4.0 q=50.0 size=       1kB time=00:00:00.48 bitrate=  12.2kbits/s speed=0.0191x    frame=  103 fps=3.9 q=50.0 size=       1kB time=00:00:00.50 bitrate=  11.8kbits/s speed=0.019x    frame=  105 fps=3.8 q=49.0 size=       1kB time=00:00:00.54 bitrate=  10.9kbits/s speed=0.0197x    frame=  107 fps=3.6 q=50.0 size=       1kB time=00:00:00.58 bitrate=  10.1kbits/s speed=0.0195x    frame=  108 fps=3.5 q=50.0 size=       1kB time=00:00:00.60 bitrate=   9.8kbits/s speed=0.0197x    frame=  109 fps=3.5 q=49.0 size=       1kB time=00:00:00.62 bitrate=   9.5kbits/s speed=0.02x    frame=  111 fps=3.5 q=49.0 size=       1kB time=00:00:00.66 bitrate=   8.9kbits/s speed=0.0206x    frame=  112 fps=3.4 q=49.0 size=       1kB time=00:00:00.68 bitrate=   8.6kbits/s speed=0.0207x    frame=  114 fps=3.3 q=49.0 size=       1kB time=00:00:00.72 bitrate=   8.2kbits/s speed=0.021x    frame=  115 fps=3.2 q=49.0 size=       1kB time=00:00:00.74 bitrate=   7.9kbits/s speed=0.0206x    frame=  116 fps=3.1 q=49.0 size=       1kB time=00:00:00.76 bitrate=   7.7kbits/s speed=0.0206x    frame=  117 fps=3.1 q=49.0 size=       1kB time=00:00:00.78 bitrate=   7.5kbits/s speed=0.0209x    frame=  120 fps=3.1 q=49.0 size=       1kB time=00:00:00.84 bitrate=   7.0kbits/s speed=0.022x    frame=  121 fps=3.0 q=49.0 size=       1kB time=00:00:00.86 bitrate=   6.8kbits/s speed=0.0214x    frame=  124 fps=2.9 q=49.0 size=       1kB time=00:00:00.92 bitrate=   6.4kbits/s speed=0.0217x    frame=  125 fps=2.9 q=49.0 size=       1kB time=00:00:00.94 bitrate=   6.3kbits/s speed=0.0217x    frame=  128 fps=2.8 q=49.0 size=       1kB time=00:00:01.00 bitrate=   5.9kbits/s speed=0.0219x    frame=  129 fps=2.8 q=49.0 size=       1kB time=00:00:01.02 bitrate=   5.8kbits/s speed=0.0219x    frame=  131 fps=2.8 q=49.0 size=       1kB time=00:00:01.06 bitrate=   5.5kbits/s speed=0.0224x    frame=  132 fps=2.8 q=49.0 size=       1kB time=00:00:01.08 bitrate=   5.4kbits/s speed=0.0225x    frame=  133 fps=2.7 q=49.0 size=       1kB time=00:00:01.10 bitrate=   5.3kbits/s speed=0.0224x    frame=  134 fps=2.6 q=49.0 size=       1kB time=00:00:01.12 bitrate=   5.3kbits/s speed=0.0221x    frame=  137 fps=2.6 q=49.0 size=       1kB time=00:00:01.18 bitrate=   5.0kbits/s speed=0.0226x    frame=  138 fps=2.6 q=48.0 size=       1kB time=00:00:01.20 bitrate=   4.9kbits/s speed=0.0227x    frame=  140 fps=2.6 q=48.0 size=       1kB time=00:00:01.24 bitrate=   4.7kbits/s speed=0.023x    frame=  141 fps=2.5 q=48.0 size=       1kB time=00:00:01.26 bitrate=   4.7kbits/s speed=0.0226x    frame=  142 fps=2.5 q=48.0 size=       1kB time=00:00:01.28 bitrate=   4.6kbits/s speed=0.0225x    frame=  143 fps=2.5 q=48.0 size=       1kB time=00:00:01.30 bitrate=   4.5kbits/s speed=0.0226x    frame=  145 fps=2.5 q=48.0 size=       1kB time=00:00:01.34 bitrate=   4.4kbits/s speed=0.0231x    frame=  146 fps=2.5 q=48.0 size=       1kB time=00:00:01.36 bitrate=   4.3kbits/s speed=0.0231x    frame=  147 fps=2.4 q=48.0 size=       1kB time=00:00:01.38 bitrate=   4.3kbits/s speed=0.023x    frame=  148 fps=2.4 q=48.0 size=       1kB time=00:00:01.40 bitrate=   4.2kbits/s speed=0.0229x    frame=  150 fps=2.4 q=48.0 size=       1kB time=00:00:01.44 bitrate=   4.1kbits/s speed=0.0227x    frame=  151 fps=2.4 q=48.0 size=       1kB time=00:00:01.46 bitrate=   4.0kbits/s speed=0.0229x    frame=  153 fps=2.4 q=48.0 size=       1kB time=00:00:01.50 bitrate=   3.9kbits/s speed=0.0233x    frame=  155 fps=2.4 q=48.0 size=       1kB time=00:00:01.54 bitrate=   3.8kbits/s speed=0.0234x    frame=  156 fps=2.3 q=48.0 size=       1kB time=00:00:01.56 bitrate=   3.8kbits/s speed=0.023x    frame=  157 fps=2.3 q=48.0 size=       1kB time=00:00:01.58 bitrate=   3.7kbits/s speed=0.023x    frame=  158 fps=2.3 q=48.0 size=       1kB time=00:00:01.60 bitrate=   3.7kbits/s speed=0.0231x    frame=  161 fps=2.3 q=48.0 size=       1kB time=00:00:01.66 bitrate=   3.5kbits/s speed=0.0235x    frame=  162 fps=2.3 q=48.0 size=       1kB time=00:00:01.68 bitrate=   3.5kbits/s speed=0.0236x    frame=  163 fps=2.3 q=48.0 size=       1kB time=00:00:01.70 bitrate=   3.5kbits/s speed=0.0236x    frame=  164 fps=2.2 q=48.0 size=       1kB time=00:00:01.72 bitrate=   3.4kbits/s speed=0.0231x    frame=  165 fps=2.2 q=48.0 size=       1kB time=00:00:01.74 bitrate=   3.4kbits/s speed=0.0232x    frame=  166 fps=2.2 q=48.0 size=       1kB time=00:00:01.76 bitrate=   3.3kbits/s speed=0.0233x    frame=  169 fps=2.2 q=48.0 size=       1kB time=00:00:01.82 bitrate=   3.2kbits/s speed=0.0238x    frame=  170 fps=2.2 q=48.0 size=       1kB time=00:00:01.84 bitrate=   3.2kbits/s speed=0.0237x    frame=  171 fps=2.2 q=48.0 size=       1kB time=00:00:01.86 bitrate=   3.2kbits/s speed=0.0237x    frame=  172 fps=2.1 q=48.0 size=       1kB time=00:00:01.88 bitrate=   3.1kbits/s speed=0.0232x    frame=  173 fps=2.1 q=48.0 size=       1kB time=00:00:01.90 bitrate=   3.1kbits/s speed=0.0233x    frame=  174 fps=2.1 q=48.0 size=       1kB time=00:00:01.92 bitrate=   3.1kbits/s speed=0.0234x    frame=  178 fps=2.1 q=48.0 size=       1kB time=00:00:02.00 bitrate=   2.9kbits/s speed=0.0235x    frame=  179 fps=2.1 q=48.0 size=       1kB time=00:00:02.02 bitrate=   2.9kbits/s speed=0.0236x    frame=  180 fps=2.1 q=47.0 size=       1kB time=00:00:02.04 bitrate=   2.9kbits/s speed=0.0236x    frame=  182 fps=2.1 q=47.0 size=       1kB time=00:00:02.08 bitrate=   2.8kbits/s speed=0.0236x    frame=  183 fps=2.1 q=47.0 size=       1kB time=00:00:02.10 bitrate=   2.8kbits/s speed=0.0236x    frame=  186 fps=2.0 q=47.0 size=       1kB time=00:00:02.16 bitrate=   2.7kbits/s speed=0.0236x    frame=  187 fps=2.0 q=47.0 size=       1kB time=00:00:02.18 bitrate=   2.7kbits/s speed=0.0236x    frame=  188 fps=2.0 q=47.0 size=       1kB time=00:00:02.20 bitrate=   2.7kbits/s speed=0.0237x    frame=  191 fps=2.0 q=47.0 size=       1kB time=00:00:02.26 bitrate=   2.6kbits/s speed=0.0238x    frame=  192 fps=2.0 q=47.0 size=       1kB time=00:00:02.28 bitrate=   2.6kbits/s speed=0.0236x    frame=  193 fps=2.0 q=47.0 size=       1kB time=00:00:02.30 bitrate=   2.6kbits/s speed=0.0236x    frame=  196 fps=2.0 q=47.0 size=       1kB time=00:00:02.36 bitrate=   2.5kbits/s speed=0.024x    frame=  197 fps=2.0 q=47.0 size=       1kB time=00:00:02.38 bitrate=   2.5kbits/s speed=0.0239x    frame=  198 fps=2.0 q=47.0 size=       1kB time=00:00:02.40 bitrate=   2.5kbits/s speed=0.0238x    frame=  200 fps=2.0 q=47.0 size=       1kB time=00:00:02.44 bitrate=   2.4kbits/s speed=0.0241x    frame=  201 fps=2.0 q=47.0 size=       1kB time=00:00:02.46 bitrate=   2.4kbits/s speed=0.0239x    frame=  202 fps=1.9 q=47.0 size=       1kB time=00:00:02.48 bitrate=   2.4kbits/s speed=0.0239x    frame=  203 fps=1.9 q=47.0 size=       1kB time=00:00:02.50 bitrate=   2.4kbits/s speed=0.024x    frame=  205 fps=1.9 q=47.0 size=       1kB time=00:00:02.54 bitrate=   2.3kbits/s speed=0.0238x    frame=  206 fps=1.9 q=47.0 size=       1kB time=00:00:02.56 bitrate=   2.3kbits/s speed=0.0238x    frame=  207 fps=1.9 q=47.0 size=       1kB time=00:00:02.58 bitrate=   2.3kbits/s speed=0.0238x    frame=  210 fps=1.9 q=47.0 size=       1kB time=00:00:02.64 bitrate=   2.2kbits/s speed=0.0242x    frame=  211 fps=1.9 q=47.0 size=       1kB time=00:00:02.66 bitrate=   2.2kbits/s speed=0.0238x    frame=  212 fps=1.9 q=47.0 size=       1kB time=00:00:02.68 bitrate=   2.2kbits/s speed=0.0239x    frame=  214 fps=1.9 q=47.0 size=       1kB time=00:00:02.72 bitrate=   2.2kbits/s speed=0.024x    frame=  215 fps=1.9 q=47.0 size=       1kB time=00:00:02.74 bitrate=   2.1kbits/s speed=0.0239x    frame=  217 fps=1.9 q=47.0 size=       1kB time=00:00:02.78 bitrate=   2.1kbits/s speed=0.0241x    frame=  218 fps=1.9 q=47.0 size=       1kB time=00:00:02.80 bitrate=   2.1kbits/s speed=0.0241x    frame=  219 fps=1.9 q=47.0 size=       1kB time=00:00:02.82 bitrate=   2.1kbits/s speed=0.0241x    frame=  220 fps=1.8 q=47.0 size=       1kB time=00:00:02.84 bitrate=   2.1kbits/s speed=0.0238x    frame=  222 fps=1.8 q=47.0 size=       1kB time=00:00:02.88 bitrate=   2.0kbits/s speed=0.024x    frame=  224 fps=1.8 q=47.0 size=       1kB time=00:00:02.92 bitrate=   2.0kbits/s speed=0.0241x    frame=  225 fps=1.8 q=47.0 size=       1kB time=00:00:02.94 bitrate=   2.0kbits/s speed=0.0239x    frame=  226 fps=1.8 q=47.0 size=       1kB time=00:00:02.96 bitrate=   2.0kbits/s speed=0.024x    frame=  227 fps=1.8 q=47.0 size=       1kB time=00:00:02.98 bitrate=   2.0kbits/s speed=0.0239x    frame=  229 fps=1.8 q=47.0 size=       1kB time=00:00:03.02 bitrate=   1.9kbits/s speed=0.024x    frame=  230 fps=1.8 q=47.0 size=       1kB time=00:00:03.04 bitrate=   1.9kbits/s speed=0.0239x    frame=  231 fps=1.8 q=47.0 size=       1kB time=00:00:03.06 bitrate=   1.9kbits/s speed=0.024x    frame=  233 fps=1.8 q=47.0 size=       1kB time=00:00:03.10 bitrate=   1.9kbits/s speed=0.0241x    frame=  234 fps=1.8 q=47.0 size=       1kB time=00:00:03.12 bitrate=   1.9kbits/s speed=0.0239x    frame=  235 fps=1.8 q=47.0 size=       1kB time=00:00:03.14 bitrate=   1.9kbits/s speed=0.0239x    frame=  236 fps=1.8 q=47.0 size=       1kB time=00:00:03.16 bitrate=   1.9kbits/s speed=0.024x    frame=  239 fps=1.8 q=47.0 size=       1kB time=00:00:03.22 bitrate=   1.8kbits/s speed=0.0242x    frame=  240 fps=1.8 q=47.0 size=       1kB time=00:00:03.24 bitrate=   1.8kbits/s speed=0.0238x    frame=  242 fps=1.8 q=47.0 size=       1kB time=00:00:03.28 bitrate=   1.8kbits/s speed=0.024x    frame=  245 fps=1.8 q=47.0 size=       1kB time=00:00:03.34 bitrate=   1.8kbits/s speed=0.0242x    frame=  246 fps=1.7 q=47.0 size=       1kB time=00:00:03.36 bitrate=   1.8kbits/s speed=0.0238x    frame=  249 fps=1.8 q=47.0 size=       1kB time=00:00:03.42 bitrate=   1.7kbits/s speed=0.0241x    frame=  250 fps=1.7 q=47.0 size=       1kB time=00:00:03.44 bitrate=   1.7kbits/s speed=0.0241x    frame=  251 fps=1.7 q=47.0 size=       1kB time=00:00:03.46 bitrate=   1.7kbits/s speed=0.0241x    frame=  252 fps=1.7 q=47.0 size=       1kB time=00:00:03.48 bitrate=   1.7kbits/s speed=0.0239x    frame=  253 fps=1.7 q=47.0 size=       1kB time=00:00:03.50 bitrate=   1.7kbits/s speed=0.024x    frame=  256 fps=1.7 q=47.0 size=       1kB time=00:00:03.56 bitrate=   1.7kbits/s speed=0.0241x    frame=  257 fps=1.7 q=47.0 size=       1kB time=00:00:03.58 bitrate=   1.6kbits/s speed=0.024x    frame=  260 fps=1.7 q=47.0 size=       1kB time=00:00:03.64 bitrate=   1.6kbits/s speed=0.024x    frame=  262 fps=1.7 q=47.0 size=       1kB time=00:00:03.68 bitrate=   1.6kbits/s speed=0.0241x    frame=  264 fps=1.7 q=47.0 size=       1kB time=00:00:03.72 bitrate=   1.6kbits/s speed=0.024x    frame=  265 fps=1.7 q=47.0 size=       1kB time=00:00:03.74 bitrate=   1.6kbits/s speed=0.024x    frame=  266 fps=1.7 q=47.0 size=       1kB time=00:00:03.76 bitrate=   1.6kbits/s speed=0.0241x    frame=  268 fps=1.7 q=47.0 size=       1kB time=00:00:03.80 bitrate=   1.5kbits/s speed=0.024x    frame=  269 fps=1.7 q=47.0 size=       1kB time=00:00:03.82 bitrate=   1.5kbits/s speed=0.024x    frame=  270 fps=1.7 q=47.0 size=       1kB time=00:00:03.84 bitrate=   1.5kbits/s speed=0.024x    frame=  272 fps=1.7 q=47.0 size=       1kB time=00:00:03.88 bitrate=   1.5kbits/s speed=0.0241x    frame=  274 fps=1.7 q=47.0 size=       1kB time=00:00:03.92 bitrate=   1.5kbits/s speed=0.0241x    frame=  275 fps=1.7 q=47.0 size=       1kB time=00:00:03.94 bitrate=   1.5kbits/s speed=0.0241x    frame=  276 fps=1.7 q=47.0 size=       1kB time=00:00:03.96 bitrate=   1.5kbits/s speed=0.0241x    frame=  277 fps=1.7 q=47.0 size=       1kB time=00:00:03.98 bitrate=   1.5kbits/s speed=0.024x    frame=  278 fps=1.7 q=47.0 size=       1kB time=00:00:04.00 bitrate=   1.5kbits/s speed=0.024x    frame=  279 fps=1.7 q=47.0 size=       1kB time=00:00:04.02 bitrate=   1.5kbits/s speed=0.024x    frame=  281 fps=1.7 q=47.0 size=       1kB time=00:00:04.06 bitrate=   1.4kbits/s speed=0.0242x    frame=  282 fps=1.7 q=47.0 size=       1kB time=00:00:04.08 bitrate=   1.4kbits/s speed=0.0241x    frame=  283 fps=1.7 q=47.0 size=       1kB time=00:00:04.10 bitrate=   1.4kbits/s speed=0.024x    frame=  285 fps=1.7 q=47.0 size=       1kB time=00:00:04.14 bitrate=   1.4kbits/s speed=0.0241x    frame=  286 fps=1.7 q=47.0 size=       1kB time=00:00:04.16 bitrate=   1.4kbits/s speed=0.0241x    frame=  287 fps=1.7 q=47.0 size=       1kB time=00:00:04.18 bitrate=   1.4kbits/s speed=0.0241x    frame=  289 fps=1.7 q=47.0 size=       1kB time=00:00:04.22 bitrate=   1.4kbits/s speed=0.0241x    frame=  290 fps=1.6 q=47.0 size=       1kB time=00:00:04.24 bitrate=   1.4kbits/s speed=0.024x    frame=  291 fps=1.6 q=47.0 size=       1kB time=00:00:04.26 bitrate=   1.4kbits/s speed=0.0241x    frame=  292 fps=1.6 q=47.0 size=       1kB time=00:00:04.28 bitrate=   1.4kbits/s speed=0.0241x    frame=  294 fps=1.6 q=47.0 size=       1kB time=00:00:04.32 bitrate=   1.4kbits/s speed=0.024x    frame=  295 fps=1.6 q=47.0 size=       1kB time=00:00:04.34 bitrate=   1.4kbits/s speed=0.024x    frame=  297 fps=1.6 q=47.0 size=       1kB time=00:00:04.38 bitrate=   1.3kbits/s speed=0.0241x    frame=  299 fps=1.6 q=47.0 size=       1kB time=00:00:04.42 bitrate=   1.3kbits/s speed=0.0241x    frame=  300 fps=1.6 q=47.0 size=       1kB time=00:00:04.44 bitrate=   1.3kbits/s speed=0.024x    frame=  301 fps=1.6 q=47.0 size=       1kB time=00:00:04.46 bitrate=   1.3kbits/s speed=0.024x    frame=  303 fps=1.6 q=47.0 size=       1kB time=00:00:04.50 bitrate=   1.3kbits/s speed=0.0241x    frame=  304 fps=1.6 q=47.0 size=       1kB time=00:00:04.52 bitrate=   1.3kbits/s speed=0.0241x    frame=  305 fps=1.6 q=47.0 size=       1kB time=00:00:04.54 bitrate=   1.3kbits/s speed=0.0241x    frame=  306 fps=1.6 q=47.0 size=       1kB time=00:00:04.56 bitrate=   1.3kbits/s speed=0.0241x    frame=  307 fps=1.6 q=47.0 size=       1kB time=00:00:04.58 bitrate=   1.3kbits/s speed=0.024x    frame=  308 fps=1.6 q=47.0 size=       1kB time=00:00:04.60 bitrate=   1.3kbits/s speed=0.024x    frame=  309 fps=1.6 q=47.0 size=       1kB time=00:00:04.62 bitrate=   1.3kbits/s speed=0.024x    frame=  311 fps=1.6 q=47.0 size=       1kB time=00:00:04.66 bitrate=   1.3kbits/s speed=0.0241x    frame=  312 fps=1.6 q=47.0 size=       1kB time=00:00:04.68 bitrate=   1.3kbits/s speed=0.0241x    frame=  313 fps=1.6 q=47.0 size=       1kB time=00:00:04.70 bitrate=   1.3kbits/s speed=0.0241x    frame=  314 fps=1.6 q=47.0 size=       1kB time=00:00:04.72 bitrate=   1.2kbits/s speed=0.0241x    frame=  315 fps=1.6 q=47.0 size=       1kB time=00:00:04.74 bitrate=   1.2kbits/s speed=0.024x    frame=  316 fps=1.6 q=47.0 size=       1kB time=00:00:04.76 bitrate=   1.2kbits/s speed=0.024x    frame=  319 fps=1.6 q=47.0 size=       1kB time=00:00:04.82 bitrate=   1.2kbits/s speed=0.024x    frame=  320 fps=1.6 q=47.0 size=       1kB time=00:00:04.84 bitrate=   1.2kbits/s speed=0.024x    frame=  322 fps=1.6 q=47.0 size=       1kB time=00:00:04.88 bitrate=   1.2kbits/s speed=0.0241x    frame=  324 fps=1.6 q=47.0 size=       1kB time=00:00:04.92 bitrate=   1.2kbits/s speed=0.0242x    frame=  325 fps=1.6 q=47.0 size=       1kB time=00:00:04.94 bitrate=   1.2kbits/s speed=0.0242x    frame=  326 fps=1.6 q=47.0 size=    4956kB time=00:00:04.96 bitrate=8184.0kbits/s speed=0.0242x    frame=  332 fps=1.6 q=47.0 size=    4956kB time=00:00:05.08 bitrate=7990.7kbits/s speed=0.0246x    frame=  334 fps=1.6 q=47.0 size=    4956kB time=00:00:05.12 bitrate=7928.3kbits/s speed=0.0248x    frame=  336 fps=1.6 q=47.0 size=    4956kB time=00:00:05.16 bitrate=7866.9kbits/s speed=0.0249x    frame=  338 fps=1.6 q=47.0 size=    4956kB time=00:00:05.20 bitrate=7806.3kbits/s speed=0.025x    frame=  339 fps=1.6 q=47.0 size=    4956kB time=00:00:05.22 bitrate=7776.4kbits/s speed=0.025x    frame=  341 fps=1.6 q=47.0 size=    4956kB time=00:00:05.26 bitrate=7717.3kbits/s speed=0.0251x    frame=  342 fps=1.6 q=47.0 size=    4956kB time=00:00:05.28 bitrate=7688.1kbits/s speed=0.0251x    frame=  345 fps=1.6 q=47.0 size=    4956kB time=00:00:05.34 bitrate=7601.7kbits/s speed=0.0251x    frame=  346 fps=1.6 q=47.0 size=    4956kB time=00:00:05.36 bitrate=7573.4kbits/s speed=0.0251x    frame=  348 fps=1.6 q=47.0 size=    4956kB time=00:00:05.40 bitrate=7517.3kbits/s speed=0.0253x    frame=  349 fps=1.6 q=47.0 size=    4956kB time=00:00:05.42 bitrate=7489.5kbits/s speed=0.0252x    frame=  350 fps=1.6 q=47.0 size=    4956kB time=00:00:05.44 bitrate=7462.0kbits/s speed=0.0252x    frame=  351 fps=1.6 q=47.0 size=    4956kB time=00:00:05.46 bitrate=7434.7kbits/s speed=0.0252x    frame=  353 fps=1.6 q=47.0 size=    4956kB time=00:00:05.50 bitrate=7380.6kbits/s speed=0.0252x    frame=  354 fps=1.6 q=47.0 size=    4956kB time=00:00:05.52 bitrate=7353.9kbits/s speed=0.0252x    frame=  355 fps=1.6 q=47.0 size=    4956kB time=00:00:05.54 bitrate=7327.3kbits/s speed=0.0252x    frame=  357 fps=1.6 q=47.0 size=    4956kB time=00:00:05.58 bitrate=7274.8kbits/s speed=0.0251x    frame=  358 fps=1.6 q=47.0 size=    4956kB time=00:00:05.60 bitrate=7248.9kbits/s speed=0.0252x    frame=  359 fps=1.6 q=47.0 size=    4956kB time=00:00:05.62 bitrate=7223.1kbits/s speed=0.0252x    frame=  361 fps=1.6 q=47.0 size=    4956kB time=00:00:05.66 bitrate=7172.0kbits/s speed=0.0252x    frame=  362 fps=1.6 q=47.0 size=    4956kB time=00:00:05.68 bitrate=7146.8kbits/s speed=0.0251x    frame=  364 fps=1.6 q=47.0 size=    4956kB time=00:00:05.72 bitrate=7096.8kbits/s speed=0.0253x    frame=  365 fps=1.6 q=47.0 size=    4956kB time=00:00:05.74 bitrate=7072.1kbits/s speed=0.0251x    frame=  366 fps=1.6 q=47.0 size=    4956kB time=00:00:05.76 bitrate=7047.5kbits/s speed=0.0251x    frame=  368 fps=1.6 q=47.0 size=    4956kB time=00:00:05.80 bitrate=6998.9kbits/s speed=0.0253x    frame=  369 fps=1.6 q=47.0 size=    4956kB time=00:00:05.82 bitrate=6974.9kbits/s speed=0.0251x    frame=  370 fps=1.6 q=47.0 size=    4956kB time=00:00:05.84 bitrate=6951.0kbits/s speed=0.0251x    frame=  371 fps=1.6 q=47.0 size=    4956kB time=00:00:05.86 bitrate=6927.3kbits/s speed=0.0251x    frame=  373 fps=1.6 q=47.0 size=    4956kB time=00:00:05.90 bitrate=6880.3kbits/s speed=0.0251x    frame=  374 fps=1.6 q=47.0 size=    4956kB time=00:00:05.92 bitrate=6857.1kbits/s speed=0.0251x    frame=  375 fps=1.6 q=47.0 size=    4956kB time=00:00:05.94 bitrate=6834.0kbits/s speed=0.0251x    frame=  378 fps=1.6 q=47.0 size=    4956kB time=00:00:06.00 bitrate=6765.7kbits/s speed=0.0252x    frame=  379 fps=1.6 q=47.0 size=    4956kB time=00:00:06.02 bitrate=6743.2kbits/s speed=0.0251x    frame=  380 fps=1.6 q=47.0 size=    4956kB time=00:00:06.04 bitrate=6720.9kbits/s speed=0.0251x    frame=  382 fps=1.6 q=47.0 size=    4956kB time=00:00:06.08 bitrate=6676.7kbits/s speed=0.0251x    frame=  383 fps=1.6 q=47.0 size=    4956kB time=00:00:06.10 bitrate=6654.8kbits/s speed=0.0251x    frame=  384 fps=1.6 q=47.0 size=    4956kB time=00:00:06.12 bitrate=6633.0kbits/s speed=0.0251x    frame=  385 fps=1.6 q=47.0 size=    4956kB time=00:00:06.14 bitrate=6611.4kbits/s speed=0.0251x    frame=  386 fps=1.6 q=47.0 size=    4956kB time=00:00:06.16 bitrate=6590.0kbits/s speed=0.0251x    frame=  387 fps=1.6 q=47.0 size=    4956kB time=00:00:06.18 bitrate=6568.6kbits/s speed=0.0251x    frame=  389 fps=1.6 q=47.0 size=    4956kB time=00:00:06.22 bitrate=6526.4kbits/s speed=0.0251x    frame=  390 fps=1.6 q=47.0 size=    4956kB time=00:00:06.24 bitrate=6505.5kbits/s speed=0.0251x    frame=  392 fps=1.6 q=47.0 size=    4956kB time=00:00:06.28 bitrate=6464.1kbits/s speed=0.0251x    frame=  394 fps=1.6 q=47.0 size=    4956kB time=00:00:06.32 bitrate=6423.2kbits/s speed=0.0251x    frame=  395 fps=1.6 q=47.0 size=    4956kB time=00:00:06.34 bitrate=6402.9kbits/s speed=0.025x    frame=  397 fps=1.6 q=47.0 size=    4956kB time=00:00:06.38 bitrate=6362.8kbits/s speed=0.0251x    frame=  398 fps=1.6 q=47.0 size=    4956kB time=00:00:06.40 bitrate=6342.9kbits/s speed=0.0251x    frame=  399 fps=1.6 q=47.0 size=    4956kB time=00:00:06.42 bitrate=6323.1kbits/s speed=0.025x    frame=  401 fps=1.6 q=47.0 size=    4956kB time=00:00:06.46 bitrate=6284.0kbits/s speed=0.0251x    frame=  402 fps=1.5 q=47.0 size=    4956kB time=00:00:06.48 bitrate=6264.6kbits/s speed=0.025x    frame=  403 fps=1.5 q=47.0 size=    4956kB time=00:00:06.50 bitrate=6245.3kbits/s speed=0.025x    frame=  405 fps=1.6 q=47.0 size=    4956kB time=00:00:06.54 bitrate=6207.1kbits/s speed=0.0251x    frame=  407 fps=1.6 q=47.0 size=    4956kB time=00:00:06.58 bitrate=6169.4kbits/s speed=0.0251x    frame=  408 fps=1.5 q=47.0 size=    4956kB time=00:00:06.60 bitrate=6150.7kbits/s speed=0.025x    frame=  410 fps=1.5 q=47.0 size=    4956kB time=00:00:06.64 bitrate=6113.7kbits/s speed=0.025x    frame=  411 fps=1.5 q=47.0 size=    4956kB time=00:00:06.66 bitrate=6095.3kbits/s speed=0.025x    frame=  412 fps=1.5 q=47.0 size=    4956kB time=00:00:06.68 bitrate=6077.1kbits/s speed=0.025x    frame=  413 fps=1.5 q=47.0 size=    4956kB time=00:00:06.70 bitrate=6058.9kbits/s speed=0.025x    frame=  414 fps=1.5 q=47.0 size=    4956kB time=00:00:06.72 bitrate=6040.9kbits/s speed=0.025x    frame=  415 fps=1.5 q=47.0 size=    4956kB time=00:00:06.74 bitrate=6023.0kbits/s speed=0.0249x    frame=  416 fps=1.5 q=47.0 size=    4956kB time=00:00:06.76 bitrate=6005.1kbits/s speed=0.0249x    frame=  418 fps=1.5 q=47.0 size=    4956kB time=00:00:06.80 bitrate=5969.8kbits/s speed=0.025x    frame=  420 fps=1.5 q=47.0 size=    4956kB time=00:00:06.84 bitrate=5934.9kbits/s speed=0.025x    frame=  421 fps=1.5 q=47.0 size=    4956kB time=00:00:06.86 bitrate=5917.6kbits/s speed=0.0249x    frame=  424 fps=1.5 q=47.0 size=    4956kB time=00:00:06.92 bitrate=5866.3kbits/s speed=0.025x    frame=  425 fps=1.5 q=47.0 size=    4956kB time=00:00:06.94 bitrate=5849.4kbits/s speed=0.0249x    frame=  427 fps=1.5 q=47.0 size=    4956kB time=00:00:06.98 bitrate=5815.9kbits/s speed=0.025x    frame=  428 fps=1.5 q=47.0 size=    4956kB time=00:00:07.00 bitrate=5799.3kbits/s speed=0.0248x    frame=  429 fps=1.5 q=47.0 size=    4956kB time=00:00:07.02 bitrate=5782.8kbits/s speed=0.0249x    frame=  431 fps=1.5 q=47.0 size=    4956kB time=00:00:07.06 bitrate=5750.0kbits/s speed=0.025x    frame=  433 fps=1.5 q=47.0 size=    4956kB time=00:00:07.10 bitrate=5717.6kbits/s speed=0.025x    frame=  434 fps=1.5 q=47.0 size=    4956kB time=00:00:07.12 bitrate=5701.6kbits/s speed=0.0248x    frame=  435 fps=1.5 q=47.0 size=    4956kB time=00:00:07.14 bitrate=5685.6kbits/s speed=0.0248x    frame=  438 fps=1.5 q=47.0 size=    4956kB time=00:00:07.20 bitrate=5638.2kbits/s speed=0.0249x    frame=  439 fps=1.5 q=47.0 size=    4956kB time=00:00:07.22 bitrate=5622.6kbits/s speed=0.0249x    frame=  441 fps=1.5 q=47.0 size=    4956kB time=00:00:07.26 bitrate=5591.6kbits/s speed=0.0248x    frame=  443 fps=1.5 q=47.0 size=    4956kB time=00:00:07.30 bitrate=5561.0kbits/s speed=0.0249x    frame=  445 fps=1.5 q=47.0 size=    4956kB time=00:00:07.34 bitrate=5530.7kbits/s speed=0.0249x    frame=  446 fps=1.5 q=47.0 size=    4956kB time=00:00:07.36 bitrate=5515.7kbits/s speed=0.0249x    frame=  447 fps=1.5 q=47.0 size=    4956kB time=00:00:07.38 bitrate=5500.7kbits/s speed=0.0249x    frame=  448 fps=1.5 q=47.0 size=    4956kB time=00:00:07.40 bitrate=5485.9kbits/s speed=0.0249x    frame=  449 fps=1.5 q=47.0 size=    4956kB time=00:00:07.42 bitrate=5471.1kbits/s speed=0.0248x    frame=  450 fps=1.5 q=47.0 size=    4956kB time=00:00:07.44 bitrate=5456.4kbits/s speed=0.0248x    frame=  451 fps=1.5 q=47.0 size=    4956kB time=00:00:07.46 bitrate=5441.7kbits/s speed=0.0249x    frame=  453 fps=1.5 q=47.0 size=    4956kB time=00:00:07.50 bitrate=5412.7kbits/s speed=0.0249x    frame=  454 fps=1.5 q=47.0 size=    4956kB time=00:00:07.52 bitrate=5398.3kbits/s speed=0.0249x    frame=  455 fps=1.5 q=47.0 size=    4956kB time=00:00:07.54 bitrate=5384.0kbits/s speed=0.0249x    frame=  456 fps=1.5 q=47.0 size=    4956kB time=00:00:07.56 bitrate=5369.8kbits/s speed=0.0249x    frame=  457 fps=1.5 q=47.0 size=    4956kB time=00:00:07.58 bitrate=5355.6kbits/s speed=0.0249x    frame=  458 fps=1.5 q=47.0 size=    4956kB time=00:00:07.60 bitrate=5341.5kbits/s speed=0.0249x    frame=  459 fps=1.5 q=47.0 size=    4956kB time=00:00:07.62 bitrate=5327.5kbits/s speed=0.0249x    frame=  461 fps=1.5 q=47.0 size=    4956kB time=00:00:07.66 bitrate=5299.7kbits/s speed=0.0249x    frame=  462 fps=1.5 q=47.0 size=    4956kB time=00:00:07.68 bitrate=5285.9kbits/s speed=0.0249x    frame=  463 fps=1.5 q=47.0 size=    4956kB time=00:00:07.70 bitrate=5272.1kbits/s speed=0.0249x    frame=  465 fps=1.5 q=47.0 size=    4956kB time=00:00:07.74 bitrate=5244.9kbits/s speed=0.0249x    frame=  466 fps=1.5 q=47.0 size=    4956kB time=00:00:07.76 bitrate=5231.4kbits/s speed=0.0249x    frame=  467 fps=1.5 q=47.0 size=    4956kB time=00:00:07.78 bitrate=5217.9kbits/s speed=0.0249x    frame=  468 fps=1.5 q=47.0 size=    4956kB time=00:00:07.80 bitrate=5204.6kbits/s speed=0.0248x    frame=  470 fps=1.5 q=47.0 size=    4956kB time=00:00:07.84 bitrate=5178.0kbits/s speed=0.0248x    frame=  473 fps=1.5 q=47.0 size=    4956kB time=00:00:07.90 bitrate=5138.7kbits/s speed=0.0248x    frame=  474 fps=1.5 q=47.0 size=    4956kB time=00:00:07.92 bitrate=5125.7kbits/s speed=0.0248x    frame=  475 fps=1.5 q=47.0 size=    4956kB time=00:00:07.94 bitrate=5112.8kbits/s speed=0.0248x    frame=  479 fps=1.5 q=47.0 size=    4956kB time=00:00:08.02 bitrate=5061.8kbits/s speed=0.0248x    frame=  480 fps=1.5 q=47.0 size=    4956kB time=00:00:08.04 bitrate=5049.2kbits/s speed=0.0248x    frame=  481 fps=1.5 q=47.0 size=    4956kB time=00:00:08.06 bitrate=5036.7kbits/s speed=0.0248x    frame=  482 fps=1.5 q=47.0 size=    4956kB time=00:00:08.08 bitrate=5024.2kbits/s speed=0.0248x    frame=  483 fps=1.5 q=47.0 size=    4956kB time=00:00:08.10 bitrate=5011.8kbits/s speed=0.0248x    frame=  484 fps=1.5 q=47.0 size=    4956kB time=00:00:08.12 bitrate=4999.5kbits/s speed=0.0248x    frame=  486 fps=1.5 q=47.0 size=    4956kB time=00:00:08.16 bitrate=4975.0kbits/s speed=0.0248x    frame=  487 fps=1.5 q=47.0 size=    4956kB time=00:00:08.18 bitrate=4962.8kbits/s speed=0.0248x    frame=  488 fps=1.5 q=47.0 size=    4956kB time=00:00:08.20 bitrate=4950.7kbits/s speed=0.0248x    frame=  490 fps=1.5 q=47.0 size=    4956kB time=00:00:08.24 bitrate=4926.7kbits/s speed=0.0248x    frame=  491 fps=1.5 q=47.0 size=    4956kB time=00:00:08.26 bitrate=4914.8kbits/s speed=0.0248x    frame=  492 fps=1.5 q=47.0 size=    4956kB time=00:00:08.28 bitrate=4902.9kbits/s speed=0.0248x    frame=  494 fps=1.5 q=47.0 size=    4956kB time=00:00:08.32 bitrate=4879.3kbits/s speed=0.0248x    frame=  495 fps=1.5 q=47.0 size=    4956kB time=00:00:08.34 bitrate=4867.6kbits/s speed=0.0248x    frame=  496 fps=1.5 q=47.0 size=    4956kB time=00:00:08.36 bitrate=4856.0kbits/s speed=0.0248x    frame=  498 fps=1.5 q=47.0 size=    4956kB time=00:00:08.40 bitrate=4832.9kbits/s speed=0.0248x    frame=  499 fps=1.5 q=47.0 size=    4956kB time=00:00:08.42 bitrate=4821.4kbits/s speed=0.0248x    frame=  500 fps=1.5 q=47.0 size=    4956kB time=00:00:08.44 bitrate=4810.0kbits/s speed=0.0248x    frame=  500 fps=1.2 q=-1.0 Lsize=    9789kB time=00:00:09.94 bitrate=8067.0kbits/s speed=0.0248x    
video:9785kB audio:0kB subtitle:0kB other streams:0kB global headers:0kB muxing overhead: 0.045181%
bench: utime=1548.272s
bench: maxrss=3305400kB
[libx264 @ 0x2e8e1c0] frame I:2     Avg QP:38.20  size:280190
[libx264 @ 0x2e8e1c0] frame P:114   Avg QP:47.65  size: 39872
[libx264 @ 0x2e8e1c0] frame B:384   Avg QP:48.45  size: 12795
[libx264 @ 0x2e8e1c0] consecutive B-frames:  0.4%  0.0%  1.2% 60.0% 30.0%  8.4%  0.0%  0.0%  0.0%
[libx264 @ 0x2e8e1c0] mb I  I16..4: 23.0% 71.1%  5.9%
[libx264 @ 0x2e8e1c0] mb P  I16..4:  2.3%  3.9%  0.0%  P16..4: 34.9%  2.1%  4.5%  0.0%  0.0%    skip:52.3%
[libx264 @ 0x2e8e1c0] mb B  I16..4:  0.0%  0.1%  0.0%  B16..8: 35.9%  0.8%  0.0%  direct: 0.1%  skip:63.1%  L0:43.5% L1:56.2% BI: 0.3%
[libx264 @ 0x2e8e1c0] final ratefactor: 38.87
[libx264 @ 0x2e8e1c0] 8x8 transform intra:64.6% inter:91.8%
[libx264 @ 0x2e8e1c0] direct mvs  spatial:99.2% temporal:0.8%
[libx264 @ 0x2e8e1c0] coded y,uvDC,uvAC intra: 21.5% 40.0% 11.1% inter: 0.9% 3.1% 0.0%
[libx264 @ 0x2e8e1c0] i16 v,h,dc,p: 36% 23%  6% 35%
[libx264 @ 0x2e8e1c0] i8 v,h,dc,ddl,ddr,vr,hd,vl,hu:  8%  4% 15% 11% 14% 13% 13% 11% 10%
[libx264 @ 0x2e8e1c0] i4 v,h,dc,ddl,ddr,vr,hd,vl,hu:  6%  4%  1% 13% 16% 16% 16% 13% 16%
[libx264 @ 0x2e8e1c0] i8c dc,h,v,p: 57% 17% 15% 11%
[libx264 @ 0x2e8e1c0] Weighted P-Frames: Y:1.8% UV:0.9%
[libx264 @ 0x2e8e1c0] ref P L0: 55.8%  2.6% 15.1%  4.7%  4.1%  3.5%  3.4%  1.6%  1.5%  1.2%  1.1%  1.1%  1.1%  1.1%  1.3%  0.8%
[libx264 @ 0x2e8e1c0] ref B L0: 93.7%  3.0%  1.2%  0.4%  0.3%  0.3%  0.2%  0.1%  0.1%  0.1%  0.1%  0.1%  0.1%  0.1%  0.1%
[libx264 @ 0x2e8e1c0] ref B L1: 98.8%  1.2%
[libx264 @ 0x2e8e1c0] kb/s:8015.24
